<svg preserveAspectRatio="none" overflow="visible" style="display: block;" width="24" height="24" viewBox="0 0 24 24" fill="none" xmlns="http://www.w3.org/2000/svg">
<g id="&#226;&#134;&#179; Leading Icon">
<path id="Union" d="M13.8698 2C14.3697 2 14.8 2.37995 14.86 2.87988L15.1501 5.19043C15.56 5.38041 15.95 5.61015 16.32 5.87012L18.4704 4.95996C18.9303 4.76008 19.4704 4.93994 19.7204 5.37988L21.5905 8.61035C21.8402 9.05029 21.7296 9.61025 21.3297 9.91016L19.4704 11.3203C19.4904 11.5502 19.5006 11.7701 19.5006 12C19.5006 12.2299 19.4906 12.4498 19.4606 12.6797L21.32 14.0898C21.72 14.3998 21.8297 14.9497 21.5797 15.3896L19.7106 18.6201C19.4607 19.06 18.9205 19.2398 18.4606 19.04L16.3102 18.1299C15.9403 18.3898 15.5502 18.6196 15.1403 18.8096L14.8503 21.1201C14.7902 21.6201 14.36 22 13.86 22H10.1305C9.63057 22 9.20035 21.6201 9.1403 21.1201L8.85026 18.8096C8.44031 18.6196 8.05029 18.3898 7.68033 18.1299L5.52994 19.04C5.06999 19.2399 4.5299 19.06 4.27994 18.6201L2.40983 15.3896C2.16014 14.9497 2.2707 14.3897 2.67057 14.0898L4.52994 12.6797C4.50996 12.4498 4.50065 12.2299 4.50065 12C4.50065 11.77 4.50995 11.55 4.52994 11.3301L2.67057 9.91992C2.27064 9.60998 2.16001 9.06008 2.40983 8.62012L4.27994 5.37988C4.5299 4.93995 5.06999 4.76012 5.52994 4.95996L7.68033 5.87012C8.05029 5.61015 8.44031 5.38041 8.85026 5.19043L9.1403 2.87988C9.20035 2.37995 9.63034 2 10.1403 2H13.8698ZM12.0397 8.5C10.1099 8.50026 8.53971 10.0702 8.53971 12C8.53971 13.9298 10.1099 15.4997 12.0397 15.5C13.9697 15.5 15.5397 13.93 15.5397 12C15.5397 10.07 13.9697 8.5 12.0397 8.5Z" fill="#171717"/>
</g>
</svg>
